<svg width="264" height="264" viewBox="0 0 264 264" fill="none" xmlns="http://www.w3.org/2000/svg"><g filter="url(#filter0_d_1876_2)"><circle cx="132" cy="128" r="128" fill="#82E3D9"/><path fill-rule="evenodd" clip-rule="evenodd" d="M139.312 212.947C182.975 209.238 217.256 172.623 217.256 128C217.256 80.9142 179.086 42.7436 132 42.7436C84.9142 42.7436 46.7436 80.9142 46.7436 128C46.7436 174.273 83.6072 211.935 129.569 213.222V149.438C118.446 147.184 110.074 137.352 110.074 125.564C110.074 112.111 120.98 101.205 134.433 101.205C147.886 101.205 158.792 112.111 158.792 125.564C158.792 137.346 150.427 147.174 139.312 149.434V212.947ZM132 223C184.467 223 227 180.467 227 128C227 75.5329 184.467 33 132 33C79.5329 33 37 75.5329 37 128C37 180.467 79.5329 223 132 223ZM134.433 140.18C142.504 140.18 149.048 133.636 149.048 125.564C149.048 117.492 142.504 110.949 134.433 110.949C126.361 110.949 119.817 117.492 119.817 125.564C119.817 133.636 126.361 140.18 134.433 140.18ZM173.418 130.437C178.799 130.437 183.161 126.074 183.161 120.693C183.161 115.312 178.799 110.95 173.418 110.95C168.036 110.95 163.674 115.312 163.674 120.693C163.674 126.074 168.036 130.437 173.418 130.437ZM207.513 110.949C207.513 116.33 203.15 120.693 197.769 120.693C192.388 120.693 188.026 116.33 188.026 110.949C188.026 105.568 192.388 101.205 197.769 101.205C203.15 101.205 207.513 105.568 207.513 110.949ZM95.4605 130.437C90.0792 130.437 85.7169 126.074 85.7169 120.693C85.7169 115.312 90.0792 110.95 95.4605 110.95C100.842 110.95 105.204 115.312 105.204 120.693C105.204 126.074 100.842 130.437 95.4605 130.437ZM61.3552 110.949C61.3552 116.33 65.7176 120.693 71.0988 120.693C76.4801 120.693 80.8424 116.33 80.8424 110.949C80.8424 105.568 76.4801 101.205 71.0988 101.205C65.7176 101.205 61.3552 105.568 61.3552 110.949Z" fill="black"/></g><defs><filter id="filter0_d_1876_2" x="0" y="0" width="264" height="264" filterUnits="userSpaceOnUse" color-interpolation-filters="sRGB"><feFlood flood-opacity="0" result="BackgroundImageFix"/><feColorMatrix in="SourceAlpha" type="matrix" values="0 0 0 0 0 0 0 0 0 0 0 0 0 0 0 0 0 0 127 0" result="hardAlpha"/><feOffset dy="4"/><feGaussianBlur stdDeviation="2"/><feComposite in2="hardAlpha" operator="out"/><feColorMatrix type="matrix" values="0 0 0 0 0 0 0 0 0 0 0 0 0 0 0 0 0 0 0.25 0"/><feBlend mode="normal" in2="BackgroundImageFix" result="effect1_dropShadow_1876_2"/><feBlend mode="normal" in="SourceGraphic" in2="effect1_dropShadow_1876_2" result="shape"/></filter></defs></svg>