<svg width="143" height="36" viewBox="0 0 143 36" fill="none" xmlns="http://www.w3.org/2000/svg"><path d="M16 0H1.06667C0.477563 0 0 0.478745 0 1.06931V34.9307C0 35.5213 0.477564 36 1.06667 36H29.5647C30.515 36 30.9909 34.8482 30.319 34.1746L22.0034 25.8384C21.6592 25.4934 21.128 25.4309 20.6909 25.6458C19.2752 26.3419 17.6831 26.7327 16 26.7327C10.109 26.7327 5.33333 21.9452 5.33333 16.0396C5.33333 10.134 10.109 5.34653 16 5.34653C21.891 5.34653 26.6667 10.134 26.6667 16.0396C26.6667 17.7269 26.2768 19.323 25.5825 20.7421C25.3681 21.1803 25.4304 21.7128 25.7746 22.0579L28.1503 24.4394C28.6169 24.9071 29.3931 24.8431 29.7323 24.2758C31.1722 21.8684 32 19.0509 32 16.0396C32 7.18118 24.8366 0 16 0Z" fill="url(#paint0_radial_6703_15345)"/><path d="M16 21.3861C18.9455 21.3861 21.3333 18.9924 21.3333 16.0396C21.3333 13.0868 18.9455 10.6931 16 10.6931C13.0545 10.6931 10.6667 13.0868 10.6667 16.0396C10.6667 18.9924 13.0545 21.3861 16 21.3861Z" fill="url(#paint1_radial_6703_15345)"/><path d="M50.7091 27.2975C50.1774 27.2975 49.7881 27.2222 49.5412 27.0717C49.3133 26.9211 49.1614 26.7141 49.0855 26.4506C49.0285 26.1683 49 25.8766 49 25.5755V9.28665C49 8.98552 49.038 8.71263 49.1139 8.46797C49.1899 8.20449 49.3418 7.99747 49.5697 7.84691C49.8166 7.67753 50.2058 7.59283 50.7375 7.59283H56.8332C57.7067 7.59283 58.5328 7.73399 59.3113 8.01629C60.1089 8.27977 60.821 8.69381 61.4477 9.25841C62.0743 9.8042 62.5681 10.5005 62.9289 11.3474C63.3087 12.1755 63.4985 13.1448 63.4985 14.2552C63.4985 14.9891 63.3846 15.7231 63.1567 16.4571C62.9289 17.1723 62.587 17.8404 62.1313 18.4615C61.6945 19.0637 61.1343 19.5813 60.4507 20.0141C59.7671 20.447 58.96 20.7293 58.0295 20.861H52.4466V25.6037C52.4466 25.9048 52.4086 26.1871 52.3327 26.4506C52.2757 26.7141 52.1238 26.9211 51.8769 27.0717C51.649 27.2222 51.2598 27.2975 50.7091 27.2975ZM62.8434 26.8741C62.2927 27.2505 61.837 27.3916 61.4762 27.2975C61.1343 27.2034 60.7925 26.9023 60.4507 26.3941L55.6653 19.2237L59.5107 18.7155L63.2992 24.418C63.565 24.7944 63.7264 25.1144 63.7834 25.3778C63.8404 25.6413 63.7929 25.886 63.641 26.1118C63.4891 26.3377 63.2232 26.5917 62.8434 26.8741ZM52.4466 17.4734H57.2605C57.6023 17.4734 57.9346 17.4169 58.2574 17.304C58.5992 17.1723 58.9031 16.9747 59.1689 16.7112C59.4348 16.4289 59.6437 16.0901 59.7956 15.6949C59.9665 15.2809 60.0519 14.7915 60.0519 14.2269C60.0519 13.5494 59.919 12.9754 59.6532 12.5049C59.3873 12.0156 59.0075 11.6486 58.5138 11.4039C58.039 11.1404 57.4599 11.0087 56.7762 11.0087H52.4466V17.4734Z" fill="#10253E"/><path d="M72.1792 27.4951C71.2677 27.4951 70.3752 27.3257 69.5016 26.987C68.6471 26.6294 67.8685 26.1307 67.1659 25.4908C66.4823 24.8509 65.9316 24.0981 65.5138 23.2324C65.115 22.3666 64.9156 21.4162 64.9156 20.3811C64.9156 19.3836 65.1055 18.452 65.4853 17.5863C65.8651 16.7206 66.3873 15.9584 67.052 15.2997C67.7166 14.641 68.4762 14.1328 69.3307 13.7752C70.2042 13.3988 71.1347 13.2106 72.1222 13.2106C73.4515 13.2106 74.6573 13.5306 75.7397 14.1705C76.8221 14.7915 77.6861 15.6384 78.3318 16.7112C78.9774 17.7839 79.3003 18.9978 79.3003 20.3529C79.3003 21.4256 79.1009 22.4043 78.7021 23.2888C78.3033 24.1545 77.7621 24.9073 77.0785 25.5472C76.3949 26.1683 75.6258 26.6482 74.7712 26.987C73.9357 27.3257 73.0717 27.4951 72.1792 27.4951ZM72.1222 24.164C72.7489 24.164 73.347 24.0134 73.9167 23.7123C74.5054 23.3923 74.9801 22.9406 75.3409 22.3572C75.7207 21.7738 75.9106 21.0869 75.9106 20.2964C75.9106 19.5624 75.7397 18.9131 75.3979 18.3485C75.0751 17.7839 74.6288 17.3417 74.0591 17.0217C73.4894 16.7018 72.8343 16.5418 72.0937 16.5418C71.3911 16.5418 70.7549 16.7112 70.1853 17.0499C69.6156 17.3699 69.1598 17.8216 68.818 18.405C68.4952 18.9696 68.3338 19.6095 68.3338 20.3246C68.3338 21.1151 68.5142 21.802 68.875 22.3855C69.2358 22.9501 69.701 23.3923 70.2707 23.7123C70.8594 24.0134 71.4765 24.164 72.1222 24.164Z" fill="#10253E"/><path d="M93.1606 27.2975C92.4959 27.2975 91.8978 27.2316 91.3661 27.0999C90.8533 26.9682 90.3976 26.7705 89.9988 26.5071C89.6 26.2248 89.2677 25.886 89.0019 25.4908C88.736 25.0955 88.5366 24.6345 88.4037 24.1075C88.2708 23.5617 88.2043 22.9595 88.2043 22.3008V8.69381C88.2043 8.37387 88.2328 8.09157 88.2898 7.84691C88.3467 7.58342 88.4986 7.3764 88.7455 7.22584C88.9924 7.07528 89.3817 7 89.9134 7C90.4261 7 90.8059 7.07528 91.0527 7.22584C91.2996 7.3764 91.4515 7.58342 91.5085 7.84691C91.5844 8.09157 91.6224 8.36446 91.6224 8.66558V22.3855C91.6224 22.6489 91.6509 22.8748 91.7079 23.063C91.7648 23.2512 91.8503 23.4111 91.9642 23.5429C92.0972 23.6746 92.2586 23.7687 92.4485 23.8252C92.6574 23.8817 92.8947 23.9099 93.1606 23.9099C93.5973 23.9099 93.9392 23.9663 94.186 24.0793C94.4329 24.1922 94.6133 24.371 94.7272 24.6156C94.8412 24.8603 94.8981 25.1896 94.8981 25.6037C94.8981 25.9989 94.8317 26.3283 94.6987 26.5917C94.5848 26.8364 94.3949 27.0152 94.129 27.1281C93.8822 27.241 93.5594 27.2975 93.1606 27.2975ZM85.954 27.2975C85.3274 27.2975 84.7672 27.2316 84.2735 27.0999C83.7797 26.987 83.3525 26.7988 82.9917 26.5353C82.6309 26.2718 82.327 25.9425 82.0802 25.5472C81.8523 25.152 81.6814 24.6909 81.5674 24.164C81.4535 23.6182 81.3965 22.9971 81.3965 22.3008V8.69381C81.3965 8.37387 81.425 8.09157 81.482 7.84691C81.539 7.58342 81.6909 7.3764 81.9377 7.22584C82.1846 7.07528 82.5644 7 83.0771 7C83.6088 7 83.9886 7.07528 84.2165 7.22584C84.4633 7.3764 84.6153 7.58342 84.6722 7.84691C84.7482 8.09157 84.7862 8.36446 84.7862 8.66558V22.3855C84.7862 22.743 84.8336 23.0347 84.9286 23.2606C85.0425 23.4864 85.185 23.6558 85.3559 23.7687C85.5268 23.8628 85.7262 23.9099 85.954 23.9099C86.3148 23.9099 86.5997 23.9663 86.8086 24.0793C87.0174 24.1922 87.1599 24.371 87.2358 24.6156C87.3308 24.8603 87.3783 25.1896 87.3783 25.6037C87.3783 25.9989 87.3308 26.3283 87.2358 26.5917C87.1409 26.8364 86.989 27.0152 86.7801 27.1281C86.5712 27.241 86.2958 27.2975 85.954 27.2975Z" fill="#10253E"/><path d="M108.767 27.2693C108.216 27.2693 107.808 27.1658 107.542 26.9587C107.276 26.7517 107.144 26.4694 107.144 26.1118L107.343 25.1802C107.191 25.4249 106.935 25.7166 106.574 26.0554C106.213 26.3753 105.738 26.667 105.15 26.9305C104.561 27.1752 103.849 27.2975 103.013 27.2975C102.121 27.2975 101.276 27.1187 100.478 26.7611C99.6996 26.3847 99.0065 25.8766 98.3988 25.2367C97.8101 24.578 97.3354 23.8346 96.9746 23.0065C96.6328 22.1596 96.4619 21.2562 96.4619 20.2964C96.4619 19.3742 96.6328 18.5085 96.9746 17.6992C97.3354 16.8712 97.8196 16.1372 98.4273 15.4973C99.035 14.8574 99.7281 14.3587 100.507 14.0011C101.304 13.6247 102.14 13.4365 103.013 13.4365C103.792 13.4365 104.447 13.54 104.979 13.747C105.529 13.954 105.995 14.2175 106.374 14.5375C106.754 14.8386 107.068 15.1585 107.314 15.4973L107.144 14.6786C107.144 14.2646 107.276 13.954 107.542 13.747C107.808 13.5212 108.226 13.4083 108.796 13.4083C109.327 13.4083 109.707 13.4929 109.935 13.6623C110.163 13.8129 110.305 14.0293 110.362 14.3116C110.419 14.5751 110.448 14.8762 110.448 15.215V25.5472C110.448 25.8672 110.419 26.1589 110.362 26.4224C110.305 26.6858 110.153 26.8929 109.907 27.0434C109.679 27.194 109.299 27.2693 108.767 27.2693ZM103.526 23.9946C104.172 23.9946 104.751 23.8346 105.264 23.5147C105.776 23.1947 106.185 22.7619 106.488 22.2161C106.811 21.6515 106.973 21.0304 106.973 20.3529C106.973 19.6189 106.811 18.979 106.488 18.4332C106.166 17.8874 105.738 17.464 105.207 17.1629C104.694 16.8429 104.115 16.683 103.469 16.683C102.766 16.683 102.14 16.8523 101.589 17.1911C101.038 17.511 100.602 17.9533 100.279 18.5179C99.9749 19.0637 99.823 19.6848 99.823 20.3811C99.823 21.0586 99.9844 21.6703 100.307 22.2161C100.63 22.7619 101.067 23.1947 101.618 23.5147C102.187 23.8346 102.823 23.9946 103.526 23.9946Z" fill="#10253E"/><path d="M120.512 27.1281C119.582 27.1281 118.746 26.9587 118.006 26.62C117.284 26.2624 116.667 25.7731 116.154 25.152C115.66 24.5121 115.281 23.7781 115.015 22.9501C114.768 22.122 114.644 21.228 114.644 20.2682C114.663 19.3084 114.806 18.4144 115.072 17.5863C115.338 16.7394 115.717 16.0054 116.211 15.3844C116.724 14.7633 117.341 14.274 118.063 13.9164C118.784 13.5588 119.601 13.38 120.512 13.38C121.386 13.38 122.202 13.5588 122.962 13.9164C123.74 14.274 124.424 14.7727 125.013 15.4126C125.62 16.0525 126.095 16.7959 126.437 17.6428C126.779 18.4709 126.95 19.3648 126.95 20.3246C126.95 21.3033 126.779 22.2067 126.437 23.0347C126.095 23.8628 125.63 24.5874 125.041 25.2085C124.453 25.8107 123.769 26.2812 122.99 26.62C122.212 26.9587 121.386 27.1281 120.512 27.1281ZM114.815 33C114.303 33 113.923 32.9247 113.676 32.7742C113.429 32.6236 113.277 32.426 113.22 32.1813C113.163 31.9367 113.135 31.6544 113.135 31.3344V15.1021C113.135 14.7821 113.163 14.4998 113.22 14.2552C113.277 14.0105 113.42 13.8129 113.648 13.6623C113.894 13.4929 114.274 13.4083 114.787 13.4083C115.281 13.4083 115.67 13.4835 115.955 13.6341C116.24 13.7847 116.429 14.0387 116.524 14.3963V31.3062C116.543 31.6261 116.515 31.9084 116.439 32.1531C116.382 32.4166 116.23 32.6236 115.983 32.7742C115.736 32.9247 115.347 33 114.815 33ZM120.057 23.9663C120.721 23.9663 121.319 23.8158 121.851 23.5147C122.383 23.1947 122.8 22.7619 123.104 22.2161C123.427 21.6515 123.589 21.021 123.589 20.3246C123.589 19.6095 123.427 18.979 123.104 18.4332C122.8 17.8874 122.383 17.464 121.851 17.1629C121.319 16.8429 120.721 16.683 120.057 16.683C119.411 16.683 118.822 16.8429 118.29 17.1629C117.759 17.4828 117.332 17.9157 117.009 18.4615C116.705 18.9884 116.553 19.6095 116.553 20.3246C116.553 21.021 116.705 21.6515 117.009 22.2161C117.332 22.7619 117.759 23.1947 118.29 23.5147C118.822 23.8158 119.411 23.9663 120.057 23.9663Z" fill="#10253E"/><path d="M136.563 27.1281C135.632 27.1281 134.797 26.9587 134.056 26.62C133.334 26.2624 132.717 25.7731 132.204 25.152C131.711 24.5121 131.331 23.7781 131.065 22.9501C130.818 22.122 130.695 21.228 130.695 20.2682C130.714 19.3084 130.856 18.4144 131.122 17.5863C131.388 16.7394 131.768 16.0054 132.261 15.3844C132.774 14.7633 133.391 14.274 134.113 13.9164C134.834 13.5588 135.651 13.38 136.563 13.38C137.436 13.38 138.253 13.5588 139.012 13.9164C139.791 14.274 140.474 14.7727 141.063 15.4126C141.671 16.0525 142.145 16.7959 142.487 17.6428C142.829 18.4709 143 19.3648 143 20.3246C143 21.3033 142.829 22.2067 142.487 23.0347C142.145 23.8628 141.68 24.5874 141.092 25.2085C140.503 25.8107 139.819 26.2812 139.041 26.62C138.262 26.9587 137.436 27.1281 136.563 27.1281ZM130.866 33C130.353 33 129.973 32.9247 129.726 32.7742C129.479 32.6236 129.328 32.426 129.271 32.1813C129.214 31.9367 129.185 31.6544 129.185 31.3344V15.1021C129.185 14.7821 129.214 14.4998 129.271 14.2552C129.328 14.0105 129.47 13.8129 129.698 13.6623C129.945 13.4929 130.324 13.4083 130.837 13.4083C131.331 13.4083 131.72 13.4835 132.005 13.6341C132.29 13.7847 132.48 14.0387 132.575 14.3963V31.3062C132.594 31.6261 132.565 31.9084 132.489 32.1531C132.432 32.4166 132.28 32.6236 132.034 32.7742C131.787 32.9247 131.397 33 130.866 33ZM136.107 23.9663C136.771 23.9663 137.37 23.8158 137.901 23.5147C138.433 23.1947 138.851 22.7619 139.155 22.2161C139.477 21.6515 139.639 21.021 139.639 20.3246C139.639 19.6095 139.477 18.979 139.155 18.4332C138.851 17.8874 138.433 17.464 137.901 17.1629C137.37 16.8429 136.771 16.683 136.107 16.683C135.461 16.683 134.872 16.8429 134.341 17.1629C133.809 17.4828 133.382 17.9157 133.059 18.4615C132.755 18.9884 132.603 19.6095 132.603 20.3246C132.603 21.021 132.755 21.6515 133.059 22.2161C133.382 22.7619 133.809 23.1947 134.341 23.5147C134.872 23.8158 135.461 23.9663 136.107 23.9663Z" fill="#10253E"/><defs><radialGradient id="paint0_radial_6703_15345" cx="0" cy="0" r="1" gradientUnits="userSpaceOnUse" gradientTransform="rotate(48.3665) scale(48.1664 47.8342)"><stop stop-color="#52E0FF"/><stop offset="0.397721" stop-color="#5259FF"/><stop offset="0.777952" stop-color="#FF2559"/><stop offset="1" stop-color="#FFF500"/></radialGradient><radialGradient id="paint1_radial_6703_15345" cx="0" cy="0" r="1" gradientUnits="userSpaceOnUse" gradientTransform="rotate(48.3665) scale(48.1664 47.8342)"><stop stop-color="#52E0FF"/><stop offset="0.397721" stop-color="#5259FF"/><stop offset="0.777952" stop-color="#FF2559"/><stop offset="1" stop-color="#FFF500"/></radialGradient></defs></svg>